<?xml version="1.0" encoding="UTF-8"?>
<svg id="Layer_1" data-name="Layer 1" xmlns="http://www.w3.org/2000/svg" viewBox="0 0 32 32">
  <defs>
    <style>
      .cls-1 {
        fill: #35175d;
      }

      .cls-1, .cls-2, .cls-3, .cls-4 {
        stroke-width: 0px;
      }

      .cls-2 {
        fill: #ee9b11;
      }

      .cls-3 {
        fill: #5ab4e8;
      }

      .cls-4 {
        fill: #c7c7c5;
      }
    </style>
  </defs>
  <rect class="cls-1" width="32" height="32"/>
  <g>
    <path class="cls-3" d="m23.49,20.74l-7.43,7.43-9.91-9.91c-2.05-2.05-2.05-5.38,0-7.43h0c2.05-2.05,5.38-2.05,7.43,0l9.91,9.91Z"/>
    <path class="cls-2" d="m8.65,20.74l7.43,7.43,9.78-9.78c2.05-2.05,2.05-5.38,0-7.43h0c-2.05-2.05-5.38-2.05-7.43,0l-9.78,9.78Z"/>
    <path class="cls-4" d="m8.65,20.74l7.43,7.43,3.69-3.69c2.05-2.05,2.05-5.38,0-7.43h0c-2.05-2.05-5.38-2.05-7.43,0l-3.69,3.69Z"/>
    <path class="cls-2" d="m11.68,5.98c0,1.19-.97,2.16-2.16,2.16s-2.16-.97-2.16-2.16.97-2.16,2.16-2.16,2.16.97,2.16,2.16Z"/>
    <circle class="cls-3" cx="22.46" cy="5.98" r="2.16"/>
  </g>
</svg>